<svg xmlns="http://www.w3.org/2000/svg" viewBox="0 0 919.967 591.376">
  <defs>
    <style>
      .cls-1 {
        fill: #7c7a7a;
      }
    </style>
  </defs>
  <path id="Union_1" data-name="Union 1" class="cls-1" d="M750.052,620.086c-30.022,38.677-77.187,64.8-131.364,67.641-96.242,5.044-178.162-65.31-182.975-157.139q-.226-4.3-.222-8.568c.046-65.158,39.694-122.519,98.063-149.953q-.167-3.711-.164-7.386c.063-88.1,72.535-161.949,165.769-166.836a182.471,182.471,0,0,1,48.88,3.991c24.68-58.377,83.036-101.028,153.126-104.7,92.153-4.829,171.177,59.472,181.949,145.56,69.615,3.167,129.216,45.66,153.478,105.714,66,20.879,114.956,78.636,118.644,149.01q.226,4.3.222,8.568c-.063,88.1-72.535,161.95-165.769,166.836-60.345,3.163-115.06-23.314-148.667-66.144-28.946,46.108-80.591,78.159-140.936,81.321-3.254.171-6.5.255-9.724.255C833.078,688.258,781.75,661.615,750.052,620.086Z" transform="translate(-435.493 -96.877)"/>
</svg>
