<svg xmlns="http://www.w3.org/2000/svg" viewBox="0 0 919.967 788.29">
  <defs>
    <style>
      .cls-1 {
        fill: #508be8;
      }

      .cls-2 {
        fill: #7c7a7a;
      }

      .cls-3, .cls-4 {
        stroke: none;
      }

      .cls-4 {
        fill: #707070;
      }
    </style>
  </defs>
  <g id="Group_1" data-name="Group 1" transform="translate(-407.349 -94.71)">
    <g id="rain" class="cls-1" transform="translate(118 531)">
      <path class="cls-3" d="M 996.0003051757812 351.4999389648438 C 989.7257690429688 351.4999389648438 983.6389770507812 350.2057495117188 977.9089965820312 347.6532897949219 C 972.372314453125 345.1870422363281 967.3994140625 341.65576171875 963.1283569335938 337.1575622558594 C 958.8555908203125 332.6575622558594 955.5007934570312 327.4169311523438 953.1571655273438 321.581298828125 C 950.7301635742188 315.5382080078125 949.4996337890625 309.1183166503906 949.4996337890625 302.4999389648438 C 949.4996337890625 295.8815002441406 950.7301635742188 289.4615783691406 953.1571655273438 283.4184875488281 C 955.5007934570312 277.5828552246094 958.8555908203125 272.3423156738281 963.1283569335938 267.8423156738281 C 967.3994140625 263.3441162109375 972.372314453125 259.8128356933594 977.9089965820312 257.3465881347656 C 983.6389770507812 254.7941284179688 989.7257690429688 253.4999389648438 996.0003051757812 253.4999389648438 C 1002.274597167969 253.4999389648438 1008.361267089844 254.7941284179688 1014.091125488281 257.3465881347656 C 1019.627685546875 259.8128356933594 1024.600463867188 263.3441162109375 1028.871459960938 267.8423156738281 C 1033.144287109375 272.3423156738281 1036.4990234375 277.5829467773438 1038.842651367188 283.4184875488281 C 1041.269653320312 289.4615783691406 1042.500122070312 295.8815612792969 1042.500122070312 302.4999389648438 C 1042.500122070312 309.1183166503906 1041.269653320312 315.5382080078125 1038.842651367188 321.5813903808594 C 1036.4990234375 327.4169311523438 1033.144287109375 332.6575622558594 1028.871459960938 337.1575622558594 C 1024.600463867188 341.65576171875 1019.627685546875 345.1870422363281 1014.091125488281 347.6532897949219 C 1008.361267089844 350.2057495117188 1002.274597167969 351.4999389648438 996.0003051757812 351.4999389648438 Z M 838.999755859375 321.5002136230469 C 832.7255249023438 321.5002136230469 826.6388549804688 320.2059326171875 820.9089965820312 317.6533813476562 C 815.3724975585938 315.1871337890625 810.3997192382812 311.65576171875 806.1286010742188 307.157470703125 C 801.8558959960938 302.6573791503906 798.5010375976562 297.4168395996094 796.1575317382812 291.5812072753906 C 793.7305297851562 285.5381164550781 792.4999389648438 279.118408203125 792.4999389648438 272.5002136230469 C 792.4999389648438 265.8818359375 793.7305297851562 259.4619445800781 796.1575317382812 253.4187622070312 C 798.5010375976562 247.5832061767578 801.8558959960938 242.3425750732422 806.1286010742188 237.8425750732422 C 810.3995971679688 233.3443908691406 815.3724365234375 229.8131256103516 820.9089965820312 227.3468475341797 C 826.6388549804688 224.7943878173828 832.7255249023438 223.5002136230469 838.999755859375 223.5002136230469 C 845.2743530273438 223.5002136230469 851.361083984375 224.7943878173828 857.0909423828125 227.3468475341797 C 862.6275024414062 229.8131256103516 867.600341796875 233.3443908691406 871.8712158203125 237.8425750732422 C 876.1439819335938 242.3425750732422 879.4987182617188 247.5832061767578 881.8422241210938 253.4187622070312 C 884.26904296875 259.4618530273438 885.4996337890625 265.8818359375 885.4996337890625 272.5002136230469 C 885.4996337890625 279.118408203125 884.26904296875 285.5382080078125 881.8422241210938 291.5812072753906 C 879.4987182617188 297.4168395996094 876.1439819335938 302.657470703125 871.8712158203125 307.157470703125 C 867.600341796875 311.65576171875 862.6275024414062 315.1871337890625 857.0909423828125 317.6533813476562 C 851.361083984375 320.2059326171875 845.2742309570312 321.5002136230469 838.999755859375 321.5002136230469 Z M 560.9996948242188 321.5002136230469 C 554.7254028320312 321.5002136230469 548.6387939453125 320.2059326171875 542.9088745117188 317.6533813476562 C 537.3724365234375 315.1871337890625 532.3995971679688 311.65576171875 528.1286010742188 307.157470703125 C 523.8558959960938 302.6573791503906 520.5010375976562 297.4168395996094 518.1574096679688 291.5812072753906 C 515.7305297851562 285.5381164550781 514.4999389648438 279.118408203125 514.4999389648438 272.5002136230469 C 514.4999389648438 265.8818359375 515.7305297851562 259.4619445800781 518.1574096679688 253.4187622070312 C 520.5010375976562 247.5832061767578 523.8557739257812 242.3425750732422 528.1286010742188 237.8425750732422 C 532.3995971679688 233.3443908691406 537.3724365234375 229.8131256103516 542.9088745117188 227.3468475341797 C 548.6387939453125 224.7943878173828 554.7254028320312 223.5002136230469 560.9996948242188 223.5002136230469 C 567.2742309570312 223.5002136230469 573.361083984375 224.7943878173828 579.091064453125 227.3468475341797 C 584.627685546875 229.8131256103516 589.6005859375 233.3443908691406 593.8717041015625 237.8425750732422 C 598.1444091796875 242.3425750732422 601.499267578125 247.5832061767578 603.8428955078125 253.4188537597656 C 606.2698974609375 259.4619445800781 607.5004272460938 265.8818359375 607.5004272460938 272.5002136230469 C 607.5004272460938 279.118408203125 606.2698974609375 285.5382080078125 603.8428955078125 291.5812072753906 C 601.499267578125 297.4168395996094 598.1444091796875 302.6573791503906 593.8717041015625 307.157470703125 C 589.6005249023438 311.65576171875 584.6276245117188 315.1871337890625 579.091064453125 317.6533813476562 C 573.3609619140625 320.2059326171875 567.274169921875 321.5002136230469 560.9996948242188 321.5002136230469 Z M 1098.999877929688 302.5003051757812 C 1092.7255859375 302.5003051757812 1086.638916015625 301.2060241699219 1080.909057617188 298.6534729003906 C 1075.37255859375 296.1872253417969 1070.399780273438 292.6558532714844 1066.128784179688 288.1575622558594 C 1061.856079101562 283.657470703125 1058.501220703125 278.4169311523438 1056.157592773438 272.581298828125 C 1053.730712890625 266.5382080078125 1052.500122070312 260.1184997558594 1052.500122070312 253.5003051757812 C 1052.500122070312 246.8819427490234 1053.730712890625 240.4620361328125 1056.157592773438 234.4188537597656 C 1058.501220703125 228.5832977294922 1061.85595703125 223.3426666259766 1066.128784179688 218.8426666259766 C 1070.399780273438 214.344482421875 1075.37255859375 210.8132171630859 1080.909057617188 208.3469390869141 C 1086.638916015625 205.7944793701172 1092.7255859375 204.5003051757812 1098.999877929688 204.5003051757812 C 1105.2744140625 204.5003051757812 1111.361206054688 205.7944793701172 1117.091186523438 208.3469390869141 C 1122.627685546875 210.8132171630859 1127.600463867188 214.344482421875 1131.871459960938 218.8426666259766 C 1136.144165039062 223.3426666259766 1139.498901367188 228.5832977294922 1141.842407226562 234.4188537597656 C 1144.269287109375 240.4619445800781 1145.499755859375 246.8819427490234 1145.499755859375 253.5003051757812 C 1145.499755859375 260.1184997558594 1144.269287109375 266.5382995605469 1141.842407226562 272.581298828125 C 1139.498901367188 278.4169311523438 1136.144165039062 283.6575622558594 1131.871459960938 288.1575622558594 C 1127.600463867188 292.6558532714844 1122.627563476562 296.1872253417969 1117.091186523438 298.6534729003906 C 1111.361206054688 301.2060241699219 1105.2744140625 302.5003051757812 1098.999877929688 302.5003051757812 Z M 731.500244140625 272.4996643066406 C 723.3989868164062 272.4996643066406 715.5404052734375 270.9393920898438 708.1428833007812 267.8622131347656 C 704.5875244140625 266.38330078125 701.158447265625 264.5527648925781 697.9508056640625 262.4215698242188 C 694.7736206054688 260.3105773925781 691.7859497070312 257.8862915039062 689.0708618164062 255.2160339355469 C 686.3558959960938 252.5459442138672 683.8910522460938 249.6079406738281 681.744873046875 246.4835815429688 C 679.5783081054688 243.3295745849609 677.7174072265625 239.9579467773438 676.2140502929688 236.4622192382812 C 673.0863037109375 229.1895751953125 671.5004272460938 221.4638519287109 671.5004272460938 213.499755859375 C 671.5004272460938 205.5356597900391 673.0863037109375 197.8100280761719 676.2140502929688 190.5373077392578 C 677.7174072265625 187.0416717529297 679.5783081054688 183.6700286865234 681.744873046875 180.5160369873047 C 683.8910522460938 177.3916625976562 686.3558959960938 174.4536743164062 689.0708618164062 171.7835693359375 C 691.7859497070312 169.1132965087891 694.7736206054688 166.6890258789062 697.9508056640625 164.5780334472656 C 701.158447265625 162.4468536376953 704.5875244140625 160.6163024902344 708.1428833007812 159.1373901367188 C 715.5404052734375 156.0602111816406 723.3989868164062 154.4999389648438 731.500244140625 154.4999389648438 C 739.6014404296875 154.4999389648438 747.4599609375 156.0602111816406 754.8574829101562 159.1373901367188 C 758.4129028320312 160.6163024902344 761.8419799804688 162.4468536376953 765.0496215820312 164.5780334472656 C 768.226806640625 166.6890258789062 771.2144165039062 169.1132965087891 773.9295043945312 171.7835693359375 C 776.64453125 174.4536743164062 779.1093139648438 177.3916625976562 781.2554931640625 180.5160369873047 C 783.4220581054688 183.6700286865234 785.282958984375 187.0416717529297 786.7863159179688 190.5373077392578 C 789.9140625 197.8100280761719 791.4999389648438 205.5356597900391 791.4999389648438 213.499755859375 C 791.4999389648438 221.4638519287109 789.9140625 229.1895751953125 786.7863159179688 236.4622192382812 C 785.282958984375 239.9579467773438 783.4220581054688 243.3295745849609 781.2554931640625 246.4835815429688 C 779.1093139648438 249.6079406738281 776.64453125 252.5459442138672 773.9295043945312 255.2160339355469 C 771.2144165039062 257.8862915039062 768.226806640625 260.3105773925781 765.0496215820312 262.4215698242188 C 761.8419799804688 264.5527648925781 758.4129028320312 266.38330078125 754.8574829101562 267.8622131347656 C 747.4599609375 270.9393920898438 739.6014404296875 272.4996643066406 731.500244140625 272.4996643066406 Z M 474.0003356933594 222.5002136230469 C 467.7258911132812 222.5002136230469 461.6390686035156 221.2059326171875 455.9089660644531 218.6533966064453 C 450.3724365234375 216.1871185302734 445.3995056152344 212.65576171875 441.1283264160156 208.1574859619141 C 436.8555908203125 203.6573944091797 433.5007934570312 198.4168548583984 431.1571350097656 192.5812072753906 C 428.7301635742188 186.5382080078125 427.4996032714844 180.1183929443359 427.4996032714844 173.5002136230469 C 427.4996032714844 166.8818511962891 428.7301635742188 160.4619445800781 431.1571350097656 154.4188537597656 C 433.5007934570312 148.5832061767578 436.8555908203125 143.3425750732422 441.1283264160156 138.8425750732422 C 445.3994140625 134.3443908691406 450.3723449707031 130.8131256103516 455.9089660644531 128.3468475341797 C 461.6389770507812 125.7943954467773 467.7257995605469 124.5002136230469 474.0003356933594 124.5002136230469 C 480.2745971679688 124.5002136230469 486.3612365722656 125.7943954467773 492.0911560058594 128.3468475341797 C 497.627685546875 130.8131256103516 502.6005249023438 134.3443908691406 506.8715209960938 138.8425750732422 C 511.1442260742188 143.3425750732422 514.4990844726562 148.5832061767578 516.8425903320312 154.4187622070312 C 519.2695922851562 160.4619445800781 520.5001220703125 166.8818511962891 520.5001220703125 173.5002136230469 C 520.5001220703125 180.1183929443359 519.2695922851562 186.5381164550781 516.8425903320312 192.5812072753906 C 514.4990844726562 198.4168548583984 511.1442260742188 203.6573944091797 506.8715209960938 208.1574859619141 C 502.6004333496094 212.65576171875 497.6275939941406 216.1871185302734 492.0911560058594 218.6533966064453 C 486.3612365722656 221.2059326171875 480.2745971679688 222.5002136230469 474.0003356933594 222.5002136230469 Z M 1001.999694824219 211.5003967285156 C 994.2413940429688 211.5003967285156 986.7151489257812 209.8760375976562 979.6298828125 206.6724853515625 C 976.2236328125 205.1324005126953 972.9380493164062 203.2260284423828 969.864501953125 201.0063018798828 C 966.8193969726562 198.8072052001953 963.955810546875 196.2814788818359 961.3531494140625 193.4992980957031 C 958.7499389648438 190.7165832519531 956.3864135742188 187.6543884277344 954.3283081054688 184.3978424072266 C 952.2501220703125 181.1096649169922 950.4652099609375 177.5942993164062 949.0230712890625 173.9493865966797 C 946.0218505859375 166.3645782470703 944.5001220703125 158.3069458007812 944.5001220703125 150.0003051757812 C 944.5001220703125 141.6934814453125 946.0218505859375 133.6356658935547 949.0230712890625 126.0507583618164 C 950.4652099609375 122.4059371948242 952.2501220703125 118.8905792236328 954.3283081054688 115.6023025512695 C 956.3864135742188 112.3458480834961 958.7499389648438 109.2836685180664 961.3531494140625 106.5009384155273 C 963.955810546875 103.7188491821289 966.8193969726562 101.1931228637695 969.864501953125 98.99403381347656 C 972.9380493164062 96.77439117431641 976.2236328125 94.86811828613281 979.6298828125 93.32803344726562 C 986.715087890625 90.12448883056641 994.2413940429688 88.50021362304688 1001.999694824219 88.50021362304688 C 1009.758239746094 88.50021362304688 1017.28466796875 90.12448883056641 1024.3701171875 93.32803344726562 C 1027.7763671875 94.86811828613281 1031.06201171875 96.77439117431641 1034.135620117188 98.99403381347656 C 1037.180786132812 101.1931228637695 1040.044555664062 103.7188491821289 1042.647094726562 106.5010299682617 C 1045.250366210938 109.2836685180664 1047.613891601562 112.3458480834961 1049.671997070312 115.6023025512695 C 1051.750122070312 118.8905792236328 1053.53515625 122.4059371948242 1054.977294921875 126.0507583618164 C 1057.978515625 133.6356658935547 1059.500244140625 141.6934814453125 1059.500244140625 150.0003051757812 C 1059.500244140625 158.3069458007812 1057.978515625 166.3645782470703 1054.977294921875 173.9493865966797 C 1053.53515625 177.5942993164062 1051.750122070312 181.1096649169922 1049.671997070312 184.3978424072266 C 1047.613891601562 187.6543884277344 1045.250366210938 190.7165832519531 1042.647094726562 193.4992980957031 C 1040.04443359375 196.2813873291016 1037.180786132812 198.8072052001953 1034.135620117188 201.0063018798828 C 1031.06201171875 203.2260284423828 1027.7763671875 205.1324005126953 1024.3701171875 206.6724853515625 C 1017.28466796875 209.8760375976562 1009.758178710938 211.5003967285156 1001.999694824219 211.5003967285156 Z M 867.9996337890625 202.5003967285156 C 861.725341796875 202.5003967285156 855.638671875 201.2061157226562 849.9088134765625 198.6536712646484 C 844.372314453125 196.1873016357422 839.3995361328125 192.6559448242188 835.12841796875 188.1576690673828 C 830.855712890625 183.6576690673828 827.5008544921875 178.4170379638672 825.1573486328125 172.5814819335938 C 822.7303466796875 166.5383911132812 821.499755859375 160.1185760498047 821.499755859375 153.5003967285156 C 821.499755859375 146.8820343017578 822.7303466796875 140.4621276855469 825.1573486328125 134.4189453125 C 827.5008544921875 128.5833892822266 830.855712890625 123.3427581787109 835.12841796875 118.8427581787109 C 839.3994140625 114.3445739746094 844.3722534179688 110.8133010864258 849.9088134765625 108.3470306396484 C 855.638671875 105.7945785522461 861.725341796875 104.5003967285156 867.9996337890625 104.5003967285156 C 874.274169921875 104.5003967285156 880.3609619140625 105.7945785522461 886.0909423828125 108.3470306396484 C 891.6276245117188 110.8133010864258 896.6005249023438 114.3445739746094 900.87158203125 118.8427581787109 C 905.1443481445312 123.3427581787109 908.4991455078125 128.5833892822266 910.8427734375 134.4190368652344 C 913.269775390625 140.4621276855469 914.5003051757812 146.8820343017578 914.5003051757812 153.5003967285156 C 914.5003051757812 160.1185760498047 913.269775390625 166.5383911132812 910.8427734375 172.5814819335938 C 908.4991455078125 178.4170379638672 905.1443481445312 183.6576690673828 900.87158203125 188.1576690673828 C 896.6005249023438 192.6559448242188 891.6275024414062 196.1873016357422 886.0909423828125 198.6536712646484 C 880.3609008789062 201.2061157226562 874.2740478515625 202.5003967285156 867.9996337890625 202.5003967285156 Z M 623.9996948242188 186.5002136230469 C 617.7254028320312 186.5002136230469 611.6387939453125 185.2059326171875 605.9088745117188 182.6533966064453 C 600.3724365234375 180.1871185302734 595.3995971679688 176.65576171875 591.1286010742188 172.1574859619141 C 586.8558959960938 167.6573944091797 583.5010375976562 162.4168548583984 581.1574096679688 156.5812072753906 C 578.7305297851562 150.5381164550781 577.4999389648438 144.1183929443359 577.4999389648438 137.5002136230469 C 577.4999389648438 130.8818511962891 578.7305297851562 124.4619369506836 581.1574096679688 118.4187545776367 C 583.5010375976562 112.5832138061523 586.8557739257812 107.3425750732422 591.1286010742188 102.8425750732422 C 595.3995971679688 98.34439086914062 600.3724365234375 94.81311798095703 605.9088745117188 92.34684753417969 C 611.6387939453125 89.79439544677734 617.7254028320312 88.50021362304688 623.9996948242188 88.50021362304688 C 630.2742309570312 88.50021362304688 636.361083984375 89.79439544677734 642.091064453125 92.34684753417969 C 647.627685546875 94.81311798095703 652.6005859375 98.34439086914062 656.8717041015625 102.8425750732422 C 661.1444091796875 107.3425750732422 664.499267578125 112.5832138061523 666.8428955078125 118.4188461303711 C 669.2698974609375 124.4619369506836 670.5004272460938 130.8818511962891 670.5004272460938 137.5002136230469 C 670.5004272460938 144.1183929443359 669.2698974609375 150.5382080078125 666.8428955078125 156.5812072753906 C 664.499267578125 162.4168548583984 661.1444091796875 167.6573944091797 656.8717041015625 172.1574859619141 C 652.6005249023438 176.65576171875 647.6276245117188 180.1871185302734 642.091064453125 182.6533966064453 C 636.3609619140625 185.2059326171875 630.274169921875 186.5002136230469 623.9996948242188 186.5002136230469 Z"/>
      <path class="cls-4" d="M 996.0003051757812 350.9999389648438 C 1002.204040527344 350.9999389648438 1008.222229003906 349.7203063964844 1013.8876953125 347.1965637207031 C 1019.363952636719 344.7571105957031 1024.283203125 341.263671875 1028.508911132812 336.8132934570312 C 1032.738037109375 332.3592224121094 1036.058715820312 327.1717529296875 1038.378662109375 321.39501953125 C 1040.78173828125 315.4114074707031 1042.000122070312 309.05419921875 1042.000122070312 302.4999389648438 C 1042.000122070312 295.9456787109375 1040.78173828125 289.5884704589844 1038.378662109375 283.6048583984375 C 1036.058715820312 277.8280334472656 1032.738037109375 272.6405639648438 1028.508911132812 268.1865844726562 C 1024.283203125 263.7362060546875 1019.363952636719 260.2427673339844 1013.8876953125 257.8033142089844 C 1008.222229003906 255.2795715332031 1002.204040527344 253.9999389648438 996.0003051757812 253.9999389648438 C 989.7963256835938 253.9999389648438 983.7779541015625 255.2795715332031 978.1124267578125 257.8033142089844 C 972.6360473632812 260.2427673339844 967.7166137695312 263.7362060546875 963.490966796875 268.1865844726562 C 959.2617797851562 272.6405639648438 955.941162109375 277.8280334472656 953.6211547851562 283.6048583984375 C 951.2180786132812 289.58837890625 949.9996337890625 295.9456787109375 949.9996337890625 302.4999389648438 C 949.9996337890625 309.05419921875 951.2180786132812 315.4114074707031 953.6211547851562 321.39501953125 C 955.941162109375 327.1717529296875 959.2617797851562 332.3592224121094 963.490966796875 336.8132934570312 C 967.7166137695312 341.263671875 972.6360473632812 344.7571105957031 978.1124267578125 347.1965637207031 C 983.7779541015625 349.7203063964844 989.7963256835938 350.9999389648438 996.0003051757812 350.9999389648438 M 838.999755859375 321.0002136230469 C 845.2036743164062 321.0002136230469 851.2220458984375 319.7204895019531 856.8875122070312 317.1966552734375 C 862.36376953125 314.7572021484375 867.2830810546875 311.263671875 871.5086669921875 306.8132019042969 C 875.7376708984375 302.359130859375 879.058349609375 297.1716613769531 881.3782348632812 291.3949279785156 C 883.78125 285.4114074707031 884.9996337890625 279.0542907714844 884.9996337890625 272.5002136230469 C 884.9996337890625 265.9459533691406 883.78125 259.5886535644531 881.3782348632812 253.6051177978516 C 879.058349609375 247.8283081054688 875.7376708984375 242.6409454345703 871.5086669921875 238.1868438720703 C 867.2831420898438 233.7364807128906 862.3638916015625 230.2430267333984 856.8875122070312 227.8035736083984 C 851.2220458984375 225.2798461914062 845.2037963867188 224.0002136230469 838.999755859375 224.0002136230469 C 832.7960815429688 224.0002136230469 826.7778930664062 225.2798461914062 821.1124267578125 227.8035736083984 C 815.6361694335938 230.2430267333984 810.7168579101562 233.7364807128906 806.4912109375 238.1868438720703 C 802.2620849609375 242.6409454345703 798.94140625 247.8283996582031 796.6213989257812 253.6051177978516 C 794.2184448242188 259.5887451171875 792.9999389648438 265.9459533691406 792.9999389648438 272.5002136230469 C 792.9999389648438 279.05419921875 794.2184448242188 285.4113159179688 796.6213989257812 291.3949279785156 C 798.94140625 297.1716613769531 802.2621459960938 302.359130859375 806.4912109375 306.8132019042969 C 810.7168579101562 311.263671875 815.6361694335938 314.7572021484375 821.1124267578125 317.1966552734375 C 826.7778930664062 319.7204895019531 832.7960815429688 321.0002136230469 838.999755859375 321.0002136230469 M 560.9996948242188 321.0002136230469 C 567.20361328125 321.0002136230469 573.2219848632812 319.7204895019531 578.8876342773438 317.1966552734375 C 584.3639526367188 314.7572021484375 589.2833251953125 311.263671875 593.509033203125 306.8132019042969 C 597.7382202148438 302.359130859375 601.0588989257812 297.1716613769531 603.37890625 291.3949279785156 C 605.781982421875 285.4113159179688 607.0004272460938 279.05419921875 607.0004272460938 272.5002136230469 C 607.0004272460938 265.9459533691406 605.781982421875 259.5887451171875 603.37890625 253.6051177978516 C 601.0588989257812 247.8283996582031 597.7382202148438 242.6409454345703 593.509033203125 238.1868438720703 C 589.283447265625 233.7364807128906 584.3639526367188 230.2430267333984 578.8876342773438 227.8035736083984 C 573.2220458984375 225.2798461914062 567.2036743164062 224.0002136230469 560.9996948242188 224.0002136230469 C 554.7959594726562 224.0002136230469 548.7777709960938 225.2798461914062 543.1123046875 227.8035736083984 C 537.6360473632812 230.2430267333984 532.716796875 233.7364807128906 528.4911499023438 238.1868438720703 C 524.2620849609375 242.6409454345703 520.94140625 247.8283996582031 518.6213989257812 253.6051177978516 C 516.2184448242188 259.5887451171875 514.9999389648438 265.9459533691406 514.9999389648438 272.5002136230469 C 514.9999389648438 279.05419921875 516.2184448242188 285.4113159179688 518.6213989257812 291.3949279785156 C 520.94140625 297.1716613769531 524.2620849609375 302.359130859375 528.4911499023438 306.8132019042969 C 532.716796875 311.263671875 537.6360473632812 314.7572021484375 543.1123046875 317.1966552734375 C 548.7777709960938 319.7204895019531 554.7959594726562 321.0002136230469 560.9996948242188 321.0002136230469 M 1098.999877929688 302.0003051757812 C 1105.203735351562 302.0003051757812 1111.22216796875 300.7205810546875 1116.8876953125 298.1967468261719 C 1122.364013671875 295.7572937011719 1127.283203125 292.2637634277344 1131.508911132812 287.8132934570312 C 1135.737915039062 283.3592224121094 1139.058471679688 278.1717529296875 1141.37841796875 272.39501953125 C 1143.781372070312 266.4114990234375 1144.999755859375 260.0543823242188 1144.999755859375 253.5003051757812 C 1144.999755859375 246.9460296630859 1143.781372070312 240.5887603759766 1141.37841796875 234.6052093505859 C 1139.058471679688 228.8283996582031 1135.737915039062 223.6410369873047 1131.508911132812 219.1869354248047 C 1127.283203125 214.736572265625 1122.364013671875 211.2431182861328 1116.8876953125 208.8036651611328 C 1111.22216796875 206.2799377441406 1105.203857421875 205.0003051757812 1098.999877929688 205.0003051757812 C 1092.796142578125 205.0003051757812 1086.777954101562 206.2799377441406 1081.112548828125 208.8036651611328 C 1075.63623046875 211.2431182861328 1070.716918945312 214.736572265625 1066.491333007812 219.1869354248047 C 1062.26220703125 223.6410369873047 1058.941650390625 228.8284912109375 1056.62158203125 234.6052093505859 C 1054.218627929688 240.5888519287109 1053.000122070312 246.9460296630859 1053.000122070312 253.5003051757812 C 1053.000122070312 260.0542907714844 1054.218627929688 266.4114074707031 1056.62158203125 272.39501953125 C 1058.941650390625 278.1717529296875 1062.26220703125 283.3592224121094 1066.491333007812 287.8132934570312 C 1070.716918945312 292.2637634277344 1075.63623046875 295.7572937011719 1081.112548828125 298.1967468261719 C 1086.777954101562 300.7205810546875 1092.796142578125 302.0003051757812 1098.999877929688 302.0003051757812 M 731.500244140625 271.9996643066406 C 739.5352172851562 271.9996643066406 747.3291625976562 270.4523010253906 754.66552734375 267.4005737304688 C 758.1913452148438 265.9339294433594 761.5919799804688 264.1185607910156 764.77294921875 262.005126953125 C 767.9237060546875 259.9116821289062 770.8864135742188 257.507568359375 773.5789794921875 254.8595733642578 C 776.2711791992188 252.2118530273438 778.7152099609375 249.2984924316406 780.8434448242188 246.2004852294922 C 782.9915161132812 243.0733032226562 784.8364868164062 239.7304840087891 786.3269653320312 236.2646636962891 C 789.4277954101562 229.0547637939453 790.9999389648438 221.3955688476562 790.9999389648438 213.499755859375 C 790.9999389648438 205.6040344238281 789.4277954101562 197.9447631835938 786.3269653320312 190.7348480224609 C 784.8364868164062 187.2691192626953 782.9915161132812 183.9262084960938 780.8434448242188 180.7991180419922 C 778.7152099609375 177.7011260986328 776.2711791992188 174.7877502441406 773.5789794921875 172.1400299072266 C 770.8864135742188 169.4920349121094 767.9237060546875 167.0879364013672 764.77294921875 164.9944915771484 C 761.5919799804688 162.8809356689453 758.1913452148438 161.065673828125 754.66552734375 159.5990295410156 C 747.3291625976562 156.5473022460938 739.5352172851562 154.9999389648438 731.500244140625 154.9999389648438 C 723.4652099609375 154.9999389648438 715.6713256835938 156.5473022460938 708.3348999023438 159.5990295410156 C 704.8091430664062 161.065673828125 701.4085083007812 162.8809356689453 698.2275390625 164.9944915771484 C 695.0767822265625 167.0879364013672 692.1139526367188 169.4920349121094 689.4215087890625 172.1400299072266 C 686.729248046875 174.7877502441406 684.28515625 177.7011260986328 682.1570434570312 180.7991180419922 C 680.0088500976562 183.9262084960938 678.1638793945312 187.2691192626953 676.6734008789062 190.7348480224609 C 673.5726318359375 197.9447631835938 672.0004272460938 205.6040344238281 672.0004272460938 213.499755859375 C 672.0004272460938 221.3955688476562 673.5726318359375 229.0547637939453 676.6734008789062 236.2646636962891 C 678.1638793945312 239.7304840087891 680.0088500976562 243.0733032226562 682.1570434570312 246.2004852294922 C 684.28515625 249.2984924316406 686.729248046875 252.2118530273438 689.4215087890625 254.8595733642578 C 692.1139526367188 257.507568359375 695.0767822265625 259.9116821289062 698.2275390625 262.005126953125 C 701.4085083007812 264.1185607910156 704.8091430664062 265.9339294433594 708.3348999023438 267.4005737304688 C 715.6713256835938 270.4523010253906 723.4652099609375 271.9996643066406 731.500244140625 271.9996643066406 M 474.0003356933594 222.0002136230469 C 480.2040710449219 222.0002136230469 486.2222290039062 220.7204895019531 491.8876953125 218.1966705322266 C 497.3639526367188 215.7572174072266 502.2832336425781 212.263671875 506.5088806152344 207.8132171630859 C 510.7379760742188 203.3591156005859 514.0587158203125 198.1716613769531 516.3787231445312 192.3949432373047 C 518.7816772460938 186.4113006591797 520.0001220703125 180.0542144775391 520.0001220703125 173.5002136230469 C 520.0001220703125 166.9459381103516 518.7816772460938 160.5887603759766 516.3787231445312 154.6051177978516 C 514.0587158203125 148.8283996582031 510.7380676269531 143.6409454345703 506.5088806152344 139.1868438720703 C 502.2832336425781 134.7364807128906 497.3639526367188 131.2430267333984 491.8876953125 128.8035736083984 C 486.2222290039062 126.2798461914062 480.2040710449219 125.0002136230469 474.0003356933594 125.0002136230469 C 467.7963256835938 125.0002136230469 461.7779541015625 126.2798461914062 456.1124267578125 128.8035736083984 C 450.6360473632812 131.2430267333984 445.7166137695312 134.7364807128906 441.490966796875 139.1868438720703 C 437.2617797851562 143.6409454345703 433.941162109375 148.8283996582031 431.6211547851562 154.6051177978516 C 429.2180480957031 160.5887603759766 427.9996032714844 166.9459381103516 427.9996032714844 173.5002136230469 C 427.9996032714844 180.0542144775391 429.2180480957031 186.4113006591797 431.6211547851562 192.3949432373047 C 433.941162109375 198.1716613769531 437.2617797851562 203.3591156005859 441.490966796875 207.8132171630859 C 445.7167053222656 212.263671875 450.6360473632812 215.7572174072266 456.1124267578125 218.1966705322266 C 461.7780456542969 220.7204895019531 467.7964172363281 222.0002136230469 474.0003356933594 222.0002136230469 M 1001.999694824219 211.0003967285156 C 1009.686706542969 211.0003967285156 1017.143859863281 209.3910369873047 1024.164184570312 206.2168426513672 C 1027.539916992188 204.6905822753906 1030.79638671875 202.801025390625 1033.842895507812 200.6009368896484 C 1036.861938476562 198.4206695556641 1039.701293945312 195.9163970947266 1042.281982421875 193.1576690673828 C 1044.86376953125 190.3978424072266 1047.2080078125 187.3607635498047 1049.249389648438 184.1307525634766 C 1051.310913085938 180.8687591552734 1053.081665039062 177.3813934326172 1054.512451171875 173.7654876708984 C 1057.490356445312 166.2393951416016 1059.000244140625 158.2436676025391 1059.000244140625 150.0003051757812 C 1059.000244140625 141.7567596435547 1057.490356445312 133.7608489990234 1054.512451171875 126.2347564697266 C 1053.081665039062 122.6187591552734 1051.310913085938 119.1313934326172 1049.249389648438 115.8694839477539 C 1047.2080078125 112.6394882202148 1044.86376953125 109.6023941040039 1042.281982421875 106.8425750732422 C 1039.701293945312 104.0839385986328 1036.861938476562 101.5796661376953 1033.842895507812 99.39939117431641 C 1030.79638671875 97.19930267333984 1027.539916992188 95.3099365234375 1024.164184570312 93.78357696533203 C 1017.143859863281 90.60957336425781 1009.686706542969 89.00021362304688 1001.999694824219 89.00021362304688 C 994.31298828125 89.00021362304688 986.85595703125 90.60957336425781 979.8358154296875 93.78357696533203 C 976.4600830078125 95.3099365234375 973.2036743164062 97.19930267333984 970.1572265625 99.39939117431641 C 967.1382446289062 101.5796661376953 964.2989501953125 104.0839385986328 961.71826171875 106.8425750732422 C 959.1365356445312 109.6023941040039 956.7923583984375 112.6394882202148 954.7509765625 115.8694839477539 C 952.6893920898438 119.1313934326172 950.918701171875 122.6187591552734 949.4879760742188 126.2347564697266 C 946.5100708007812 133.7608489990234 945.0001220703125 141.7567596435547 945.0001220703125 150.0003051757812 C 945.0001220703125 158.2436676025391 946.5100708007812 166.2393951416016 949.4879760742188 173.7654876708984 C 950.918701171875 177.3813934326172 952.6893920898438 180.8687591552734 954.7509765625 184.1307525634766 C 956.7923583984375 187.3607635498047 959.1365356445312 190.3978424072266 961.71826171875 193.1576690673828 C 964.2989501953125 195.9163970947266 967.1382446289062 198.4206695556641 970.1572265625 200.6009368896484 C 973.2036743164062 202.8011169433594 976.4600830078125 204.6905822753906 979.8358154296875 206.2168426513672 C 986.85595703125 209.3910369873047 994.31298828125 211.0003967285156 1001.999694824219 211.0003967285156 M 867.9996337890625 202.0003967285156 C 874.2034912109375 202.0003967285156 880.2218627929688 200.7207641601562 885.8875122070312 198.1969451904297 C 891.3638916015625 195.7574005126953 896.2832641601562 192.2638549804688 900.5089721679688 187.8134002685547 C 904.7381591796875 183.3592987060547 908.0587768554688 178.1718444824219 910.3787841796875 172.3951263427734 C 912.7818603515625 166.4115753173828 914.0003051757812 160.0544891357422 914.0003051757812 153.5003967285156 C 914.0003051757812 146.9461212158203 912.7818603515625 140.5889434814453 910.3787841796875 134.6053009033203 C 908.0587768554688 128.8285827636719 904.7381591796875 123.6411209106445 900.5089721679688 119.1870269775391 C 896.2833251953125 114.7366638183594 891.3638916015625 111.2432098388672 885.8875122070312 108.8037567138672 C 880.2219848632812 106.280029296875 874.20361328125 105.0003967285156 867.9996337890625 105.0003967285156 C 861.7958984375 105.0003967285156 855.7777099609375 106.280029296875 850.1122436523438 108.8037567138672 C 844.635986328125 111.2432098388672 839.7166748046875 114.7366638183594 835.4910888671875 119.1870269775391 C 831.2619018554688 123.6411209106445 827.9412231445312 128.8285827636719 825.6212158203125 134.6053009033203 C 823.21826171875 140.5889434814453 821.999755859375 146.9461212158203 821.999755859375 153.5003967285156 C 821.999755859375 160.0544891357422 823.21826171875 166.4115753173828 825.6212158203125 172.3951263427734 C 827.9412231445312 178.1718444824219 831.261962890625 183.3592987060547 835.4910888671875 187.8134002685547 C 839.7166748046875 192.2638549804688 844.635986328125 195.7574005126953 850.1122436523438 198.1969451904297 C 855.7777099609375 200.7207641601562 861.7958984375 202.0003967285156 867.9996337890625 202.0003967285156 M 623.9996948242188 186.0002136230469 C 630.20361328125 186.0002136230469 636.2219848632812 184.7204895019531 641.8876342773438 182.1966705322266 C 647.3639526367188 179.7572174072266 652.2833251953125 176.263671875 656.509033203125 171.8132171630859 C 660.7382202148438 167.3591156005859 664.0588989257812 162.1716613769531 666.37890625 156.3949432373047 C 668.781982421875 150.4113006591797 670.0004272460938 144.0542144775391 670.0004272460938 137.5002136230469 C 670.0004272460938 130.9459381103516 668.781982421875 124.5887603759766 666.37890625 118.6051177978516 C 664.0588989257812 112.8283920288086 660.7382202148438 107.6409378051758 656.509033203125 103.1868515014648 C 652.283447265625 98.73648834228516 647.3639526367188 95.24302673339844 641.8876342773438 92.80357360839844 C 636.2220458984375 90.27984619140625 630.2036743164062 89.00021362304688 623.9996948242188 89.00021362304688 C 617.7959594726562 89.00021362304688 611.7777709960938 90.27984619140625 606.1123046875 92.80357360839844 C 600.6360473632812 95.24302673339844 595.716796875 98.73648834228516 591.4911499023438 103.1868515014648 C 587.2620849609375 107.6409378051758 583.94140625 112.8283920288086 581.6213989257812 118.6051177978516 C 579.2184448242188 124.5887603759766 577.9999389648438 130.9459381103516 577.9999389648438 137.5002136230469 C 577.9999389648438 144.0542144775391 579.2184448242188 150.4113006591797 581.6213989257812 156.3949432373047 C 583.94140625 162.1716613769531 587.2620849609375 167.3591156005859 591.4911499023438 171.8132171630859 C 595.716796875 176.263671875 600.6360473632812 179.7572174072266 606.1123046875 182.1966705322266 C 611.7777709960938 184.7204895019531 617.7959594726562 186.0002136230469 623.9996948242188 186.0002136230469 M 996.0003051757812 351.9999389648438 C 970.0425415039062 351.9999389648438 948.9996337890625 329.8383178710938 948.9996337890625 302.4999389648438 C 948.9996337890625 275.1614990234375 970.0425415039062 252.9999389648438 996.0003051757812 252.9999389648438 C 1021.957214355469 252.9999389648438 1043.000122070312 275.1614990234375 1043.000122070312 302.4999389648438 C 1043.000122070312 329.8383178710938 1021.957214355469 351.9999389648438 996.0003051757812 351.9999389648438 Z M 838.999755859375 322.0002136230469 C 813.0428466796875 322.0002136230469 791.9999389648438 299.8376770019531 791.9999389648438 272.5002136230469 C 791.9999389648438 245.1618499755859 813.0428466796875 223.0002136230469 838.999755859375 223.0002136230469 C 864.9575805664062 223.0002136230469 885.9996337890625 245.1618499755859 885.9996337890625 272.5002136230469 C 885.9996337890625 299.8376770019531 864.9575805664062 322.0002136230469 838.999755859375 322.0002136230469 Z M 560.9996948242188 322.0002136230469 C 535.0427856445312 322.0002136230469 513.9999389648438 299.8376770019531 513.9999389648438 272.5002136230469 C 513.9999389648438 245.1618499755859 535.0427856445312 223.0002136230469 560.9996948242188 223.0002136230469 C 586.95751953125 223.0002136230469 608.0004272460938 245.1618499755859 608.0004272460938 272.5002136230469 C 608.0004272460938 299.8376770019531 586.95751953125 322.0002136230469 560.9996948242188 322.0002136230469 Z M 1098.999877929688 303.0003051757812 C 1073.04296875 303.0003051757812 1052.000122070312 280.8377685546875 1052.000122070312 253.5003051757812 C 1052.000122070312 226.1619415283203 1073.04296875 204.0003051757812 1098.999877929688 204.0003051757812 C 1124.957763671875 204.0003051757812 1145.999755859375 226.1619415283203 1145.999755859375 253.5003051757812 C 1145.999755859375 280.8377685546875 1124.957763671875 303.0003051757812 1098.999877929688 303.0003051757812 Z M 731.500244140625 272.9996643066406 C 698.0867919921875 272.9996643066406 671.0004272460938 246.3605804443359 671.0004272460938 213.499755859375 C 671.0004272460938 180.6390380859375 698.0867919921875 153.9999389648438 731.500244140625 153.9999389648438 C 764.91357421875 153.9999389648438 791.9999389648438 180.6390380859375 791.9999389648438 213.499755859375 C 791.9999389648438 246.3605804443359 764.91357421875 272.9996643066406 731.500244140625 272.9996643066406 Z M 474.0003356933594 223.0002136230469 C 448.0425109863281 223.0002136230469 426.9996032714844 200.8376617431641 426.9996032714844 173.5002136230469 C 426.9996032714844 146.1618499755859 448.0425109863281 124.0002136230469 474.0003356933594 124.0002136230469 C 499.9572448730469 124.0002136230469 521.0001220703125 146.1618499755859 521.0001220703125 173.5002136230469 C 521.0001220703125 200.8376617431641 499.9572448730469 223.0002136230469 474.0003356933594 223.0002136230469 Z M 1001.999694824219 212.0003967285156 C 969.9678955078125 212.0003967285156 944.0001220703125 184.2416687011719 944.0001220703125 150.0003051757812 C 944.0001220703125 115.7580337524414 969.9678955078125 88.00021362304688 1001.999694824219 88.00021362304688 C 1034.032470703125 88.00021362304688 1060.000244140625 115.7580337524414 1060.000244140625 150.0003051757812 C 1060.000244140625 184.2416687011719 1034.032470703125 212.0003967285156 1001.999694824219 212.0003967285156 Z M 867.9996337890625 203.0003967285156 C 842.042724609375 203.0003967285156 820.999755859375 180.8379364013672 820.999755859375 153.5003967285156 C 820.999755859375 126.1620330810547 842.042724609375 104.0003967285156 867.9996337890625 104.0003967285156 C 893.9573974609375 104.0003967285156 915.0003051757812 126.1620330810547 915.0003051757812 153.5003967285156 C 915.0003051757812 180.8379364013672 893.9573974609375 203.0003967285156 867.9996337890625 203.0003967285156 Z M 623.9996948242188 187.0002136230469 C 598.0427856445312 187.0002136230469 576.9999389648438 164.8376617431641 576.9999389648438 137.5002136230469 C 576.9999389648438 110.1618499755859 598.0427856445312 88.00021362304688 623.9996948242188 88.00021362304688 C 649.95751953125 88.00021362304688 671.0004272460938 110.1618499755859 671.0004272460938 137.5002136230469 C 671.0004272460938 164.8376617431641 649.95751953125 187.0002136230469 623.9996948242188 187.0002136230469 Z"/>
    </g>
    <path id="cloud" class="cls-2" d="M750.052,620.086c-30.022,38.677-77.187,64.8-131.364,67.641-96.242,5.044-178.162-65.31-182.975-157.139q-.226-4.3-.222-8.568c.046-65.158,39.694-122.519,98.063-149.953q-.167-3.711-.164-7.386c.063-88.1,72.535-161.949,165.769-166.836a182.471,182.471,0,0,1,48.88,3.991c24.68-58.377,83.036-101.028,153.126-104.7,92.153-4.829,171.177,59.472,181.949,145.56,69.615,3.167,129.216,45.66,153.478,105.714,66,20.879,114.956,78.636,118.644,149.01q.226,4.3.222,8.568c-.063,88.1-72.535,161.95-165.769,166.836-60.345,3.163-115.06-23.314-148.667-66.144-28.946,46.108-80.591,78.159-140.936,81.321-3.254.171-6.5.255-9.724.255C833.078,688.258,781.75,661.615,750.052,620.086Z" transform="translate(-28.143 -2.168)"/>
  </g>
</svg>
